<?xml version="1.0" standalone="no"?>
<!DOCTYPE svg PUBLIC "-//W3C//DTD SVG 20010904//EN"
 "http://www.w3.org/TR/2001/REC-SVG-20010904/DTD/svg10.dtd">
<svg version="1.0" xmlns="http://www.w3.org/2000/svg"
 width="200.000000pt" height="200.000000pt" viewBox="0 0 200.000000 200.000000"
 preserveAspectRatio="xMidYMid meet">
<metadata>
Created by potrace 1.14, written by Peter Selinger 2001-2017
</metadata>
<g transform="translate(0.000000,200.000000) scale(0.100000,-0.100000)"
fill="#000000" stroke="none">
<path d="M200 1793 c0 -22 2 -25 10 -13 13 20 13 40 0 40 -5 0 -10 -12 -10
-27z"/>
<path d="M251 1813 c-1 -6 -4 -18 -7 -27 -4 -11 -1 -16 10 -16 18 0 19 6 6 35
-5 11 -9 15 -9 8z"/>
<path d="M288 1808 c-6 -15 1 -38 10 -38 4 0 8 11 8 25 2 26 -10 34 -18 13z"/>
<path d="M370 1795 c0 -14 2 -25 4 -25 2 0 6 11 8 25 3 14 1 25 -3 25 -5 0 -9
-11 -9 -25z"/>
<path d="M447 1813 c-9 -9 -9 -43 1 -43 4 0 8 11 8 25 2 27 1 29 -9 18z"/>
<path d="M540 1809 c0 -5 -4 -8 -9 -5 -5 3 -11 -2 -13 -12 -4 -12 1 -18 13
-18 13 0 19 8 19 23 0 13 -2 23 -5 23 -3 0 -5 -5 -5 -11z"/>
<path d="M577 1813 c-13 -12 -7 -43 8 -43 8 0 15 6 15 13 0 18 -15 38 -23 30z"/>
<path d="M1101 1734 c-116 -57 -178 -83 -191 -79 -11 4 -24 3 -30 0 -14 -8 24
-62 49 -70 38 -12 61 -14 66 -6 2 5 45 30 95 55 l91 46 -5 -47 c-14 -133 -30
-253 -35 -261 -10 -16 -87 -18 -105 -3 -13 11 -17 11 -22 -3 -4 -10 -15 -14
-35 -12 -17 2 -31 5 -33 7 -1 2 -13 38 -26 79 -30 97 -58 149 -92 166 -36 19
-52 18 -72 -4 -15 -18 -15 -21 12 -55 38 -48 77 -192 75 -274 -4 -116 -63
-327 -114 -407 -29 -46 -31 -47 -68 -41 -28 5 -41 2 -51 -10 -12 -14 -11 -18
1 -26 12 -8 11 -12 -4 -23 -18 -14 -16 -15 25 -26 23 -7 51 -16 60 -21 43 -22
67 -11 118 59 27 37 57 90 66 117 9 28 20 54 24 58 4 5 37 -8 74 -29 53 -29
73 -35 99 -30 18 4 47 10 66 13 l34 5 -8 -33 c-13 -55 -7 -254 9 -314 15 -58
13 -61 -28 -45 -21 8 -26 7 -26 -6 0 -11 -6 -14 -16 -10 -8 3 -12 2 -9 -4 3
-6 1 -10 -4 -10 -6 0 -11 3 -11 8 0 4 -13 7 -30 7 -16 1 -30 -3 -30 -7 0 -4 7
-8 16 -8 27 0 114 -32 114 -42 0 -5 4 -7 8 -4 5 3 25 -6 45 -20 38 -25 118
-41 140 -27 6 4 14 8 17 8 3 1 19 8 36 18 17 9 34 13 38 10 3 -3 9 8 12 25 5
24 12 32 28 33 16 0 17 2 6 7 -8 4 -17 16 -18 27 -6 31 -12 31 -12 1 0 -37
-27 -82 -58 -96 -13 -6 -26 -9 -28 -8 -14 14 -68 187 -76 243 -17 122 -14 661
5 828 21 184 24 196 53 207 37 14 30 49 -16 88 -21 17 -43 32 -48 32 -5 0 -86
-38 -181 -86z m-86 -430 c11 -13 24 -24 29 -24 4 0 13 -6 21 -13 11 -11 10
-16 -6 -25 -10 -7 -19 -19 -19 -28 0 -8 -4 -13 -9 -10 -13 9 -60 -17 -67 -36
-3 -10 -10 -18 -15 -18 -15 0 -10 33 8 59 9 14 11 21 5 17 -7 -4 -11 12 -10
54 1 57 2 60 22 54 12 -4 30 -17 41 -30z m182 -129 c-5 -77 -17 -82 -16 -7 1
34 6 62 11 62 5 0 7 -25 5 -55z m-57 -1 c0 -8 4 -13 9 -10 14 9 19 -14 13 -54
-6 -44 -19 -60 -33 -40 -8 13 -11 13 -19 -1 -10 -16 -87 -35 -124 -31 -26 3
-59 39 -53 56 8 19 93 67 128 71 16 2 37 9 47 14 24 15 32 13 32 -5z m52 -104
c3 -16 1 -30 -4 -30 -4 0 -8 14 -8 30 0 17 2 30 4 30 2 0 6 -13 8 -30z m8
-190 c0 -16 -4 -30 -10 -30 -5 0 -10 14 -10 30 0 17 5 30 10 30 6 0 10 -13 10
-30z m-33 -82 c-3 -7 -5 -2 -5 12 0 14 2 19 5 13 2 -7 2 -19 0 -25z"/>
<path d="M332 1790 c0 -14 2 -19 5 -12 2 6 2 18 0 25 -3 6 -5 1 -5 -13z"/>
<path d="M412 1790 c0 -14 2 -19 5 -12 2 6 2 18 0 25 -3 6 -5 1 -5 -13z"/>
<path d="M663 1792 c-1 -10 5 -19 13 -19 8 0 14 9 14 19 0 10 -6 18 -13 18 -7
0 -13 -8 -14 -18z"/>
<path d="M620 1780 c0 -5 5 -10 10 -10 6 0 10 5 10 10 0 6 -4 10 -10 10 -5 0
-10 -4 -10 -10z"/>
<path d="M621 1724 c0 -11 3 -14 6 -6 3 7 2 16 -1 19 -3 4 -6 -2 -5 -13z"/>
<path d="M412 1660 c0 -19 2 -27 5 -17 2 9 2 25 0 35 -3 9 -5 1 -5 -18z"/>
<path d="M432 1660 c0 -19 2 -27 5 -17 2 9 2 25 0 35 -3 9 -5 1 -5 -18z"/>
<path d="M452 1660 c0 -19 2 -27 5 -17 2 9 2 25 0 35 -3 9 -5 1 -5 -18z"/>
<path d="M265 1042 c-15 -11 -15 -29 0 -29 7 0 13 9 12 19 -1 10 -1 18 -2 18
0 0 -4 -4 -10 -8z"/>
<path d="M316 990 c7 -8 14 -24 17 -35 4 -19 5 -19 6 1 0 12 -7 28 -16 35 -16
12 -17 12 -7 -1z"/>
<path d="M432 934 c10 -10 20 -15 24 -12 3 4 -5 12 -18 18 -22 12 -22 12 -6
-6z"/>
<path d="M480 936 c0 -7 40 -14 44 -7 3 4 -6 8 -20 9 -13 1 -24 0 -24 -2z"/>
<path d="M451 890 c-1 -31 12 -90 20 -90 9 0 2 50 -12 85 -5 13 -8 15 -8 5z"/>
<path d="M1340 815 c0 -56 2 -65 18 -65 10 0 22 -3 25 -7 4 -3 18 -8 32 -9 26
-3 26 -2 23 68 -2 41 -8 73 -14 75 -7 2 -10 -11 -7 -42 4 -31 1 -45 -7 -45 -7
0 -10 -7 -6 -15 4 -11 -2 -15 -22 -15 -24 1 -25 2 -10 14 17 12 16 14 -5 24
l-22 11 22 0 c28 1 41 21 14 21 -25 0 -27 13 -5 34 14 15 13 16 -10 16 -25 0
-26 -2 -26 -65z"/>
<path d="M486 855 c-9 -26 -7 -32 5 -12 6 10 9 21 6 23 -2 3 -7 -2 -11 -11z"/>
<path d="M570 846 c0 -7 7 -19 15 -26 9 -8 15 -9 15 -2 0 6 -5 14 -10 17 -6 4
-8 11 -5 16 4 5 1 9 -4 9 -6 0 -11 -6 -11 -14z"/>
<path d="M1561 844 c0 -11 3 -14 6 -6 3 7 2 16 -1 19 -3 4 -6 -2 -5 -13z"/>
<path d="M496 791 c-10 -11 -16 -29 -13 -43 l4 -23 2 24 c0 14 8 33 18 43 9
10 14 18 11 18 -3 0 -13 -9 -22 -19z"/>
<path d="M1505 770 c3 -5 8 -10 11 -10 2 0 4 5 4 10 0 6 -5 10 -11 10 -5 0 -7
-4 -4 -10z"/>
<path d="M456 743 c-6 -14 -5 -15 5 -6 7 7 10 15 7 18 -3 3 -9 -2 -12 -12z"/>
<path d="M1539 725 c-1 -3 -2 -10 -3 -15 0 -6 -14 -22 -31 -36 l-30 -26 32 21
c17 12 46 21 65 22 l33 1 -33 9 c-18 5 -30 14 -27 19 4 6 4 10 1 10 -3 0 -7
-2 -7 -5z"/>
<path d="M311 713 c0 -4 4 -17 9 -28 8 -19 9 -19 9 2 1 12 -3 25 -9 28 -5 3
-10 3 -9 -2z"/>
<path d="M380 653 c0 -26 0 -26 -22 -7 l-23 19 23 -26 c26 -30 28 -45 6 -57
-13 -7 -10 -12 18 -29 18 -11 49 -22 68 -26 31 -5 32 -5 10 4 -70 30 -90 42
-80 54 5 6 9 20 9 30 1 43 5 55 13 47 5 -5 10 -18 11 -30 0 -11 5 -19 9 -16 4
3 3 15 -2 28 -5 13 -6 27 -3 30 4 3 -3 6 -15 6 -17 0 -22 -6 -22 -27z"/>
<path d="M511 664 c0 -11 3 -14 6 -6 3 7 2 16 -1 19 -3 4 -6 -2 -5 -13z"/>
<path d="M1001 661 c-7 -5 -12 -14 -10 -20 2 -6 10 -2 17 9 14 22 13 23 -7 11z"/>
<path d="M1462 630 c0 -14 2 -19 5 -12 2 6 2 18 0 25 -3 6 -5 1 -5 -13z"/>
<path d="M401 584 c0 -11 3 -14 6 -6 3 7 2 16 -1 19 -3 4 -6 -2 -5 -13z"/>
<path d="M511 559 c-1 -8 5 -23 12 -34 11 -14 16 -15 22 -5 5 8 4 11 -3 6 -6
-3 -15 6 -20 21 -6 16 -11 21 -11 12z"/>
<path d="M1067 543 c-13 -12 -7 -19 18 -21 28 -2 34 12 9 22 -19 7 -19 7 -27
-1z"/>
<path d="M838 522 c-19 -4 -25 -42 -7 -42 6 0 9 6 6 14 -7 18 17 28 32 13 6
-6 13 -9 15 -6 9 8 -28 25 -46 21z"/>
<path d="M550 500 c0 -5 4 -10 9 -10 6 0 13 5 16 10 3 6 -1 10 -9 10 -9 0 -16
-4 -16 -10z"/>
<path d="M758 493 c7 -3 16 -2 19 1 4 3 -2 6 -13 5 -11 0 -14 -3 -6 -6z"/>
<path d="M980 479 c0 -5 5 -7 10 -4 6 3 10 8 10 11 0 2 -4 4 -10 4 -5 0 -10
-5 -10 -11z"/>
<path d="M602 451 c13 -15 25 -27 26 -25 6 4 -32 53 -41 54 -5 0 2 -13 15 -29z"/>
<path d="M882 464 c10 -10 20 -16 22 -13 3 3 -5 11 -17 18 -21 13 -21 12 -5
-5z"/>
<path d="M929 443 c-13 -17 -13 -17 6 -3 11 8 22 16 24 17 2 2 0 3 -6 3 -6 0
-17 -8 -24 -17z"/>
<path d="M1065 450 c-4 -6 -10 -8 -15 -5 -4 3 -13 -2 -20 -10 -7 -9 -8 -15 -2
-15 11 0 61 39 50 40 -4 0 -10 -5 -13 -10z"/>
<path d="M1141 411 c-8 -5 -9 -11 -3 -15 5 -3 12 1 16 9 6 17 6 18 -13 6z"/>
<path d="M1890 410 c0 -5 7 -7 15 -4 8 4 15 8 15 10 0 2 -7 4 -15 4 -8 0 -15
-4 -15 -10z"/>
<path d="M600 399 c0 -5 5 -7 10 -4 6 3 10 8 10 11 0 2 -4 4 -10 4 -5 0 -10
-5 -10 -11z"/>
<path d="M1165 399 c-4 -6 -4 -13 -1 -16 3 -4 6 -1 6 5 0 6 15 -5 34 -23 34
-36 46 -42 46 -25 0 6 -12 15 -26 20 -14 6 -28 19 -31 30 -6 22 -18 26 -28 9z"/>
<path d="M1350 385 c0 -9 6 -12 15 -9 8 4 15 7 15 9 0 2 -7 5 -15 9 -9 3 -15
0 -15 -9z"/>
<path d="M870 375 c0 -8 4 -15 10 -15 5 0 7 7 4 15 -4 8 -8 15 -10 15 -2 0 -4
-7 -4 -15z"/>
<path d="M1144 349 c14 -20 26 -43 26 -52 0 -9 8 -15 19 -14 18 1 18 3 3 35
-9 18 -18 29 -20 23 -2 -6 -15 2 -29 17 l-25 27 26 -36z"/>
<path d="M1810 370 c-9 -6 -10 -10 -3 -10 6 0 15 5 18 10 8 12 4 12 -15 0z"/>
<path d="M1289 363 c-1 -5 -1 -11 -1 -15 1 -3 -5 -12 -13 -18 -8 -7 -14 -22
-14 -34 1 -20 2 -20 6 -1 3 11 17 30 32 43 19 16 21 21 7 16 -13 -5 -17 -4
-12 4 4 7 5 12 2 12 -3 0 -7 -3 -7 -7z"/>
<path d="M1753 349 c-33 -21 -40 -29 -25 -29 8 1 70 50 62 50 -3 0 -20 -10
-37 -21z"/>
<path d="M916 337 c3 -10 9 -15 12 -12 3 3 0 11 -7 18 -10 9 -11 8 -5 -6z"/>
<path d="M1905 330 c-3 -6 1 -7 9 -4 18 7 21 14 7 14 -6 0 -13 -4 -16 -10z"/>
<path d="M1700 310 c0 -5 5 -10 11 -10 5 0 7 5 4 10 -3 6 -8 10 -11 10 -2 0
-4 -4 -4 -10z"/>
<path d="M768 303 c6 -2 18 -2 25 0 6 3 1 5 -13 5 -14 0 -19 -2 -12 -5z"/>
<path d="M969 305 c-1 -3 -2 -8 -3 -12 -1 -5 -5 -15 -10 -23 -6 -9 -1 -8 12 4
12 10 19 23 16 27 -6 10 -13 12 -15 4z"/>
<path d="M1310 300 c0 -15 38 -32 45 -20 4 6 3 10 -2 9 -20 -3 -34 2 -28 11 3
6 1 10 -4 10 -6 0 -11 -4 -11 -10z"/>
<path d="M880 296 c0 -2 8 -10 18 -17 15 -13 16 -12 3 4 -13 16 -21 21 -21 13z"/>
<path d="M1384 286 c11 -9 31 -16 45 -15 24 1 24 2 -5 8 -17 4 -37 11 -45 15
-8 4 -5 0 5 -8z"/>
<path d="M920 281 c0 -6 4 -13 10 -16 6 -3 7 1 4 9 -7 18 -14 21 -14 7z"/>
<path d="M1789 273 c-13 -17 -13 -17 6 -3 11 8 22 16 24 17 2 2 0 3 -6 3 -6 0
-17 -8 -24 -17z"/>
<path d="M1150 260 c-8 -5 -12 -12 -9 -15 4 -3 12 1 19 10 14 17 11 19 -10 5z"/>
<path d="M1710 251 c0 -5 5 -13 10 -16 6 -3 10 -2 10 4 0 5 -4 13 -10 16 -5 3
-10 2 -10 -4z"/>
<path d="M957 243 c-3 -5 -1 -17 4 -28 7 -17 8 -17 8 8 1 27 -4 34 -12 20z"/>
<path d="M1670 240 c-12 -8 -10 -10 8 -10 13 0 20 4 17 10 -7 12 -6 12 -25 0z"/>
<path d="M1755 240 c-3 -5 -2 -10 4 -10 5 0 13 5 16 10 3 6 2 10 -4 10 -5 0
-13 -4 -16 -10z"/>
<path d="M1034 214 c-18 -15 -18 -15 2 -5 12 6 24 7 28 4 3 -3 6 -1 6 5 0 16
-12 15 -36 -4z"/>
<path d="M1187 212 c3 -12 0 -29 -7 -37 -7 -8 -8 -15 -4 -15 5 0 15 9 21 19 9
15 9 23 -2 37 -13 18 -14 18 -8 -4z"/>
<path d="M1271 214 c0 -11 3 -14 6 -6 3 7 2 16 -1 19 -3 4 -6 -2 -5 -13z"/>
<path d="M1523 215 c0 -7 6 -11 14 -8 7 3 13 6 13 8 0 2 -6 5 -13 8 -8 3 -14
-1 -14 -8z"/>
<path d="M1730 210 c0 -5 5 -10 11 -10 5 0 7 5 4 10 -3 6 -8 10 -11 10 -2 0
-4 -4 -4 -10z"/>
<path d="M896 188 c-15 -17 -15 -20 -3 -15 17 6 33 -25 22 -43 -3 -5 1 -10 9
-10 19 0 19 1 4 37 -6 15 -10 34 -9 41 3 17 -2 15 -23 -10z"/>
<path d="M1486 201 c-12 -5 -15 -10 -9 -14 6 -4 16 0 23 8 14 17 13 17 -14 6z"/>
<path d="M1660 199 c0 -5 -4 -8 -8 -5 -4 2 -14 1 -22 -5 -13 -7 -12 -9 2 -9
23 0 48 11 48 21 0 5 -4 9 -10 9 -5 0 -10 -5 -10 -11z"/>
<path d="M1056 185 c-11 -8 -15 -15 -9 -15 6 0 16 7 23 15 16 19 11 19 -14 0z"/>
<path d="M1750 190 c-9 -6 -10 -10 -3 -10 6 0 15 5 18 10 8 12 4 12 -15 0z"/>
<path d="M1410 179 c0 -5 9 -9 20 -9 11 0 20 2 20 4 0 2 -9 6 -20 9 -11 3 -20
1 -20 -4z"/>
<path d="M1700 180 c-13 -8 -12 -10 3 -10 9 0 17 5 17 10 0 12 -1 12 -20 0z"/>
<path d="M1218 173 c7 -3 16 -2 19 1 4 3 -2 6 -13 5 -11 0 -14 -3 -6 -6z"/>
<path d="M1656 165 c-11 -8 -15 -15 -9 -15 6 0 16 7 23 15 16 19 11 19 -14 0z"/>
<path d="M1310 159 c0 -5 5 -7 10 -4 6 3 10 8 10 11 0 2 -4 4 -10 4 -5 0 -10
-5 -10 -11z"/>
<path d="M975 144 c-26 -13 -27 -14 -5 -10 14 3 31 6 38 6 6 0 12 5 12 10 0
13 -8 12 -45 -6z"/>
<path d="M1348 153 c7 -3 16 -2 19 1 4 3 -2 6 -13 5 -11 0 -14 -3 -6 -6z"/>
<path d="M1560 148 c0 -4 5 -10 10 -13 6 -3 10 -1 10 5 0 6 5 8 10 5 6 -3 10
-2 10 4 0 5 -9 9 -20 8 -11 -1 -20 -5 -20 -9z"/>
<path d="M1236 125 c9 -14 21 -25 27 -25 6 0 0 11 -13 25 -13 14 -25 25 -27
25 -2 0 4 -11 13 -25z"/>
<path d="M1337 88 c6 -11 41 -10 47 1 3 4 -8 8 -23 7 -16 -1 -27 -4 -24 -8z"/>
</g>
</svg>
